# xmcd
# 
# Track frame offsets:
#     150
#     15082
#     31581
#     47473
#     65413
#     78337
#     95744
#     114019
#     133656
#     144853
#     167127
#     182774
#     199619
#     217271
# 
# Disc length: 3084
# 
# Revision: 0
# Processed by: cddbd v1.5.2PL0 Copyright (c) Steve Scherf et al.
# Submitted via: BonkEnc v1.0.8
# 
DISCID=ae0c0a0e
DTITLE=Toby Keith - Greatest Hits Vol. 1
DYEAR=1998
DGENRE=Country
TTITLE0=Getcha Some
TTITLE1=If A Man Answers
TTITLE2=Should've Been A Cowboy
TTITLE3=Dream Walkin'
TTITLE4=A Little Less Talk And A lot More Action
TTITLE5=Does That Blue Moon Ever Shine On You
TTITLE6=I'm So Happy I Can't Stop Crying
TTITLE7=We Were In Love
TTITLE8=You Ain't Much Fun
TTITLE9=Who's That Man
TTITLE10=Wish I Didn't Know Now
TTITLE11=Big Ol' Truck
TTITLE12=Me Too
TTITLE13=He Ain't Worth Missing
EXTD=YEAR: 1998
EXTT0=
EXTT1=
EXTT2=
EXTT3=
EXTT4=
EXTT5=
EXTT6=
EXTT7=
EXTT8=
EXTT9=
EXTT10=
EXTT11=
EXTT12=
EXTT13=
PLAYORDER=
